<svg xmlns="http://www.w3.org/2000/svg" xmlns:xlink="http://www.w3.org/1999/xlink" width="1280" height="800" viewBox="0 0 1280 800">
  <defs>
    <rect id="rect-5" width="773" height="488" x="0" y="0"/>
    <rect id="rect-7" width="100" height="80" x="336.5" y="204"/>
    <mask id="mask-8" x="-77" y="-152" maskContentUnits="userSpaceOnUse" maskUnits="userSpaceOnUse">
      <rect width="1280" height="800" x="-77" y="-152" fill="black"/>
      <use fill="white" xlink:href="#rect-7"/>
    </mask>
    <ellipse id="ellipse-10" cx="359.5" cy="227" rx="8" ry="8"/>
    <mask id="mask-11" x="-77" y="-152" maskContentUnits="userSpaceOnUse" maskUnits="userSpaceOnUse">
      <rect width="1280" height="800" x="-77" y="-152" fill="black"/>
      <use fill="white" xlink:href="#ellipse-10"/>
    </mask>
    <ellipse id="ellipse-12" cx="681.359" cy="560" rx="20" ry="20"/>
    <mask id="mask-13" x="-58" y="-130" maskContentUnits="userSpaceOnUse" maskUnits="userSpaceOnUse">
      <rect width="1280" height="800" x="-58" y="-130" fill="black"/>
      <use fill="white" xlink:href="#ellipse-12"/>
    </mask>
    <ellipse id="ellipse-16" cx="94" cy="560" rx="20" ry="20"/>
    <mask id="mask-17" x="-58" y="-130" maskContentUnits="userSpaceOnUse" maskUnits="userSpaceOnUse">
      <rect width="1280" height="800" x="-58" y="-130" fill="black"/>
      <use fill="white" xlink:href="#ellipse-16"/>
    </mask>
    <rect id="rect-20" width="70" height="10" x="0" y="0"/>
    <path id="path-25" fill-rule="evenodd" d="M5 0h350c2.75957512 0 5 2.24042488 5 5v169c0 2.75957512-2.24042488 5-5 5H5c-2.75957512 0-5-2.24042488-5-5V5c0-2.75957512 2.24042488-5 5-5z"/>
    <mask id="mask-26" x="-863" y="-154" maskContentUnits="userSpaceOnUse" maskUnits="userSpaceOnUse">
      <rect width="1280" height="800" x="-863" y="-154" fill="black"/>
      <use fill="white" xlink:href="#path-25"/>
    </mask>
    <ellipse id="ellipse-27" cx="60" cy="45" rx="20" ry="20"/>
    <mask id="mask-28" x="-863" y="-154" maskContentUnits="userSpaceOnUse" maskUnits="userSpaceOnUse">
      <rect width="1280" height="800" x="-863" y="-154" fill="black"/>
      <use fill="white" xlink:href="#ellipse-27"/>
    </mask>
    <path id="path-29" fill-rule="evenodd" d="M6.49725041 0c2.2076601 0 4 1.7923399 4 4v2c0 2.2076601-1.7923399 4-4 4s-4-1.7923399-4-4V4c0-2.2076601 1.7923399-4 4-4z"/>
    <mask id="mask-30" x="-916.501" y="-191.227" maskContentUnits="userSpaceOnUse" maskUnits="userSpaceOnUse">
      <rect width="1280" height="800" x="-916.501" y="-191.227" fill="black"/>
      <use fill="white" xlink:href="#path-29"/>
    </mask>
    <rect id="rect-32" width="375" height="1400" x="0" y="0"/>
    <ellipse id="ellipse-48" cx="25" cy="25" rx="25" ry="25"/>
    <mask id="mask-49" x="-914" y="-725" maskContentUnits="userSpaceOnUse" maskUnits="userSpaceOnUse">
      <rect width="1280" height="800" x="-914" y="-725" fill="black"/>
      <use fill="white" xlink:href="#ellipse-48"/>
    </mask>
    <path id="path-50" fill-rule="evenodd" d="M6.49725041 0c2.2076601 0 4 1.7923399 4 4v2c0 2.2076601-1.7923399 4-4 4s-4-1.7923399-4-4V4c0-2.2076601 1.7923399-4 4-4z"/>
    <mask id="mask-51" x="-932.501" y="-742.227" maskContentUnits="userSpaceOnUse" maskUnits="userSpaceOnUse">
      <rect width="1280" height="800" x="-932.501" y="-742.227" fill="black"/>
      <use fill="white" xlink:href="#path-50"/>
    </mask>
    <rect id="rect-53" width="224" height="50" x="0" y="0"/>
    <path id="path-54" fill-rule="evenodd" d="M5 0h214c2.75957512 0 5 2.24042488 5 5v40c0 2.75957512-2.24042488 5-5 5H5c-2.75957512 0-5-2.24042488-5-5V5c0-2.75957512 2.24042488-5 5-5z"/>
    <mask id="mask-55" x="-981" y="-726" maskContentUnits="userSpaceOnUse" maskUnits="userSpaceOnUse">
      <rect width="1280" height="800" x="-981" y="-726" fill="black"/>
      <use fill="white" xlink:href="#path-54"/>
    </mask>
    <ellipse id="ellipse-56" cx="25" cy="25" rx="25" ry="25"/>
    <mask id="mask-57" x="-866" y="-373" maskContentUnits="userSpaceOnUse" maskUnits="userSpaceOnUse">
      <rect width="1280" height="800" x="-866" y="-373" fill="black"/>
      <use fill="white" xlink:href="#ellipse-56"/>
    </mask>
    <path id="path-58" fill-rule="evenodd" d="M6.49725041 0c2.2076601 0 4 1.7923399 4 4v2c0 2.2076601-1.7923399 4-4 4s-4-1.7923399-4-4V4c0-2.2076601 1.7923399-4 4-4z"/>
    <mask id="mask-59" x="-884.501" y="-390.227" maskContentUnits="userSpaceOnUse" maskUnits="userSpaceOnUse">
      <rect width="1280" height="800" x="-884.501" y="-390.227" fill="black"/>
      <use fill="white" xlink:href="#path-58"/>
    </mask>
    <ellipse id="ellipse-61" cx="25" cy="25" rx="25" ry="25"/>
    <mask id="mask-62" x="-866" y="-583" maskContentUnits="userSpaceOnUse" maskUnits="userSpaceOnUse">
      <rect width="1280" height="800" x="-866" y="-583" fill="black"/>
      <use fill="white" xlink:href="#ellipse-61"/>
    </mask>
    <path id="path-63" fill-rule="evenodd" d="M6.49725041 0c2.2076601 0 4 1.7923399 4 4v2c0 2.2076601-1.7923399 4-4 4s-4-1.7923399-4-4V4c0-2.2076601 1.7923399-4 4-4z"/>
    <mask id="mask-64" x="-884.501" y="-600.227" maskContentUnits="userSpaceOnUse" maskUnits="userSpaceOnUse">
      <rect width="1280" height="800" x="-884.501" y="-600.227" fill="black"/>
      <use fill="white" xlink:href="#path-63"/>
    </mask>
  </defs>
  <rect width="1280" height="800" x="0" y="0" fill="rgb(34,34,34)"/>
  <text font-size="0" style="white-space:pre">
    <tspan x="462" y="102" fill="rgb(255,255,255)" font-family="Arial" font-size="12" font-weight="700" style="white-space:pre;text-transform:none">NOVEMBERIZING / PROJECT X / WEB VIDEO CHAT / LICENSE</tspan>
  </text>
  <text font-size="0" style="white-space:pre">
    <tspan x="448" y="59" fill="rgb(255,255,255)" font-family="Arial" font-size="40" font-weight="700" style="white-space:pre;text-transform:none">X WEB VIDEO CHAT</tspan>
  </text>
  <g transform="translate(58 130)">
    <rect width="1165.359" height="620" x="0" y="0" fill="rgb(34,34,34)"/>
    <rect width="1165.359" height="1" x="0" y="0" fill="rgb(51,51,51)"/>
    <rect width="1165.359" height="1" x="0" y="619" fill="rgb(51,51,51)"/>
    <g transform="translate(19 22)">
      <path fill="rgb(21,21,21)" fill-rule="evenodd" d="M5 0h763c2.75957512 0 5 2.24042488 5 5v478c0 2.75957512-2.24042488 5-5 5H5c-2.75957512 0-5-2.24042488-5-5V5c0-2.75957512 2.24042488-5 5-5z"/>
      <g>
        <use fill-opacity="0" stroke="rgb(255,51,102)" stroke-linecap="butt" stroke-linejoin="miter" stroke-width="4" mask="url(#mask-8)" xlink:href="#rect-7"/>
        <path fill="none" stroke="rgb(255,51,102)" stroke-width="2" d="M435.5024158 269.00417762l-35.00100563-35.0090234-47.99729455 49.00532715"/>
        <use fill-opacity="0" stroke="rgb(255,51,102)" stroke-width="4" mask="url(#mask-11)" xlink:href="#ellipse-10"/>
      </g>
    </g>
    <g>
      <g>
        <g>
          <use fill="rgb(34,34,34)" xlink:href="#ellipse-12"/>
          <use fill-opacity="0" stroke="rgb(51,51,51)" stroke-width="4" mask="url(#mask-13)" xlink:href="#ellipse-12"/>
        </g>
        <g transform="translate(674.10574293 555)">
          <path fill="none" stroke="rgb(255,51,102)" stroke-width="2" d="M0 5l14.5070752.00281162"/>
          <path fill="none" stroke="rgb(255,51,102)" stroke-width="2" d="M9.5 0l5 5-5 5"/>
        </g>
      </g>
      <g transform="matrix(-1 0 0 1 188 0)">
        <g>
          <use fill="rgb(34,34,34)" xlink:href="#ellipse-16"/>
          <use fill-opacity="0" stroke="rgb(51,51,51)" stroke-width="4" mask="url(#mask-17)" xlink:href="#ellipse-16"/>
        </g>
        <g transform="translate(86.7464624 555)">
          <path fill="none" stroke="rgb(255,51,102)" stroke-width="2" d="M0 5l14.5070752.00281162"/>
          <path fill="none" stroke="rgb(255,51,102)" stroke-width="2" d="M9.5 0l5 5-5 5"/>
        </g>
      </g>
      <g transform="translate(352.67964026 555)">
        <ellipse cx="5" cy="5" fill="rgb(255,51,102)" rx="5" ry="5"/>
        <ellipse cx="25" cy="5" fill="rgb(51,51,51)" rx="5" ry="5"/>
        <ellipse cx="45" cy="5" fill="rgb(51,51,51)" rx="5" ry="5"/>
        <ellipse cx="65" cy="5" fill="rgb(51,51,51)" rx="5" ry="5"/>
      </g>
    </g>
  </g>
  <g transform="translate(863 154)">
    <use fill-opacity="0" stroke="rgb(70,70,70)" stroke-width="2" mask="url(#mask-26)" xlink:href="#path-25"/>
    <g>
      <use fill-opacity="0" stroke="rgb(51,51,51)" stroke-width="4" mask="url(#mask-28)" xlink:href="#ellipse-27"/>
      <g transform="translate(53.5013748 37.22742051)">
        <use fill-opacity="0" stroke="rgb(255,51,102)" stroke-width="4" mask="url(#mask-30)" xlink:href="#path-29"/>
        <path fill="none" stroke="rgb(255,51,102)" stroke-width="2" d="M0 15.54515897S.49725041 12 6.49725041 12s6.5 3.5 6.5 3.5"/>
      </g>
    </g>
    <g>
      <text font-size="0" style="white-space:pre">
        <tspan x="95" y="62" fill="rgb(255,255,255)" font-family="Arial" font-size="18" font-weight="400" style="white-space:pre;text-transform:none">Eeyore</tspan>
      </text>
      <text font-size="0" style="white-space:pre" opacity=".5">
        <tspan x="95" y="40.5" fill="rgb(255,255,255)" font-family="Arial" font-size="16" font-weight="400" style="white-space:pre;text-transform:none">@Eeyore</tspan>
      </text>
    </g>
    <text font-size="0" style="white-space:pre">
      <tspan x="40" y="95" fill="rgb(255,255,255)" font-family="Arial" font-size="12" font-weight="400" style="white-space:pre;text-transform:none">Eeyore appears in the Winnie the Pooh cartoons </tspan> <tspan x="40" y="115" fill="rgb(255,255,255)" font-family="Arial" font-size="12" font-weight="400" style="white-space:pre;text-transform:none">produced by The Walt Disney Company. He is </tspan> <tspan x="40" y="135" fill="rgb(255,255,255)" font-family="Arial" font-size="12" font-weight="400" style="white-space:pre;text-transform:none">somewhat less caustic and sarcastic in the Disney </tspan> <tspan x="40" y="155" fill="rgb(255,255,255)" font-family="Arial" font-size="12" font-weight="400" style="white-space:pre;text-transform:none">version than in Milne's original stories.</tspan>
    </text>
  </g>
  <g transform="translate(867 364)">
    <rect width="356" height="1400" x="0" y="0" fill="rgb(34,34,34)"/>
    <rect width="354" height="1" x="0" y="-14" fill="rgb(51,51,51)"/>
    <rect width="354" height="1" x="0" y="1399" fill="rgb(51,51,51)"/>
    <g>
      <path fill="none" stroke="rgb(51,51,51)" stroke-width="2" d="M24 1046V-4"/>
      <g>
        <path fill="none" stroke="rgb(51,51,51)" stroke-width="2" d="M24 31h40"/>
        <ellipse cx="24" cy="31" fill="rgb(34,34,34)" rx="5" ry="5"/>
        <text font-size="0" style="white-space:pre">
          <tspan x="63" y="38" fill="rgb(255,255,255)" font-family="Arial" font-size="20" font-weight="400" style="white-space:pre">October 2018</tspan>
        </text>
        <text font-size="0" style="white-space:pre" opacity=".5">
          <tspan x="63" y="87" fill="rgb(255,255,255)" font-family="Arial" font-size="18" font-weight="400" style="white-space:pre">Lorem ipsum dolor sit amet, </tspan> <tspan x="63" y="117" fill="rgb(255,255,255)" font-family="Arial" font-size="18" font-weight="400" style="white-space:pre">consectetur adipiscing elit, sed do </tspan> <tspan x="63" y="147" fill="rgb(255,255,255)" font-family="Arial" font-size="18" font-weight="400" style="white-space:pre">eiusmod tempor incididunt ut </tspan> <tspan x="63" y="177" fill="rgb(255,255,255)" font-family="Arial" font-size="18" font-weight="400" style="white-space:pre">labore et dolore magna aliqua.</tspan>
        </text>
      </g>
      <g>
        <path fill="none" stroke="rgb(51,51,51)" stroke-width="2" d="M24 241h40"/>
        <ellipse cx="24" cy="241" fill="rgb(34,34,34)" rx="5" ry="5"/>
        <text font-size="0" style="white-space:pre">
          <tspan x="63" y="248" fill="rgb(255,255,255)" font-family="Arial" font-size="20" font-weight="400" style="white-space:pre">August 2018</tspan>
        </text>
        <text font-size="0" style="white-space:pre" opacity=".5">
          <tspan x="63" y="297" fill="rgb(255,255,255)" font-family="Arial" font-size="18" font-weight="400" style="white-space:pre">Lorem ipsum dolor sit amet, </tspan> <tspan x="63" y="327" fill="rgb(255,255,255)" font-family="Arial" font-size="18" font-weight="400" style="white-space:pre">consectetur adipiscing elit, sed do </tspan> <tspan x="63" y="357" fill="rgb(255,255,255)" font-family="Arial" font-size="18" font-weight="400" style="white-space:pre">eiusmod tempor incididunt ut </tspan> <tspan x="63" y="387" fill="rgb(255,255,255)" font-family="Arial" font-size="18" font-weight="400" style="white-space:pre">labore et dolore magna aliqua.</tspan>
        </text>
      </g>
      <g>
        <path fill="none" stroke="rgb(51,51,51)" stroke-width="2" d="M24 451h40"/>
        <ellipse cx="24" cy="451" fill="rgb(255,51,102)" rx="5" ry="5"/>
        <text font-size="0" style="white-space:pre">
          <tspan x="63" y="458" fill="rgb(255,255,255)" font-family="Arial" font-size="20" font-weight="400" style="white-space:pre">June 2018</tspan>
        </text>
        <text font-size="0" style="white-space:pre" opacity=".5">
          <tspan x="63" y="507" fill="rgb(255,255,255)" font-family="Arial" font-size="18" font-weight="400" style="white-space:pre">Lorem ipsum dolor sit amet, </tspan> <tspan x="63" y="537" fill="rgb(255,255,255)" font-family="Arial" font-size="18" font-weight="400" style="white-space:pre">consectetur adipiscing elit, sed do </tspan> <tspan x="63" y="567" fill="rgb(255,255,255)" font-family="Arial" font-size="18" font-weight="400" style="white-space:pre">eiusmod tempor incididunt ut </tspan> <tspan x="63" y="597" fill="rgb(255,255,255)" font-family="Arial" font-size="18" font-weight="400" style="white-space:pre">labore et dolore magna aliqua.</tspan>
        </text>
      </g>
      <g>
        <path fill="none" stroke="rgb(51,51,51)" stroke-width="2" d="M24 661h40"/>
        <ellipse cx="24" cy="661" fill="rgb(255,51,102)" rx="5" ry="5"/>
        <text font-size="0" style="white-space:pre">
          <tspan x="63" y="668" fill="rgb(255,255,255)" font-family="Arial" font-size="20" font-weight="400" style="white-space:pre">April 2018</tspan>
        </text>
        <text font-size="0" style="white-space:pre" opacity=".5">
          <tspan x="63" y="717" fill="rgb(255,255,255)" font-family="Arial" font-size="18" font-weight="400" style="white-space:pre">Lorem ipsum dolor sit amet, </tspan> <tspan x="63" y="747" fill="rgb(255,255,255)" font-family="Arial" font-size="18" font-weight="400" style="white-space:pre">consectetur adipiscing elit, sed do </tspan> <tspan x="63" y="777" fill="rgb(255,255,255)" font-family="Arial" font-size="18" font-weight="400" style="white-space:pre">eiusmod tempor incididunt ut </tspan> <tspan x="63" y="807" fill="rgb(255,255,255)" font-family="Arial" font-size="18" font-weight="400" style="white-space:pre">labore et dolore magna aliqua.</tspan>
        </text>
      </g>
      <g>
        <path fill="none" stroke="rgb(51,51,51)" stroke-width="2" d="M24 871h40"/>
        <ellipse cx="24" cy="871" fill="rgb(255,51,102)" rx="5" ry="5"/>
        <text font-size="0" style="white-space:pre">
          <tspan x="63" y="878" fill="rgb(255,255,255)" font-family="Arial" font-size="20" font-weight="400" style="white-space:pre">February 2018</tspan>
        </text>
        <text font-size="0" style="white-space:pre" opacity=".5">
          <tspan x="63" y="927" fill="rgb(255,255,255)" font-family="Arial" font-size="18" font-weight="400" style="white-space:pre">Lorem ipsum dolor sit amet, </tspan> <tspan x="63" y="957" fill="rgb(255,255,255)" font-family="Arial" font-size="18" font-weight="400" style="white-space:pre">consectetur adipiscing elit, sed do </tspan> <tspan x="63" y="987" fill="rgb(255,255,255)" font-family="Arial" font-size="18" font-weight="400" style="white-space:pre">eiusmod tempor incididunt ut </tspan> <tspan x="63" y="1017" fill="rgb(255,255,255)" font-family="Arial" font-size="18" font-weight="400" style="white-space:pre">labore et dolore magna aliqua.</tspan>
        </text>
      </g>
    </g>
  </g>
  <g transform="translate(881 644)">
    <path fill="rgb(34,34,34)" fill-rule="evenodd" d="M5 63h389c2.75957512 0 5 2.24042488 5 5v83c0 2.75957512-2.24042488 5-5 5H5c-2.75957512 0-5-2.24042488-5-5V68c0-2.75957512 2.24042488-5 5-5z"/>
    <g transform="translate(33 81)">
      <use fill-opacity="0" stroke="rgb(51,51,51)" stroke-width="4" mask="url(#mask-49)" xlink:href="#ellipse-48"/>
      <g transform="translate(18.5013748 17.22742051)">
        <use fill-opacity="0" stroke="rgb(255,51,102)" stroke-width="4" mask="url(#mask-51)" xlink:href="#path-50"/>
        <path fill="none" stroke="rgb(255,51,102)" stroke-width="2" d="M0 15.54515897S.49725041 12 6.49725041 12s6.5 3.5 6.5 3.5"/>
      </g>
    </g>
    <g transform="translate(100 82)">
      <g>
        <use fill="rgb(34,34,34)" xlink:href="#path-54"/>
        <use fill-opacity="0" stroke="rgb(70,70,70)" stroke-width="2" mask="url(#mask-55)" xlink:href="#path-54"/>
      </g>
      <text font-size="0" style="white-space:pre" opacity=".5">
        <tspan x="15" y="30" fill="rgb(255,255,255)" font-family="Arial" font-size="16" font-weight="400" style="white-space:pre;text-transform:none">Message ....</tspan>
      </text>
    </g>
  </g>
  <g transform="translate(866 373)">
    <use fill-opacity="0" stroke="rgb(51,51,51)" stroke-width="4" mask="url(#mask-57)" xlink:href="#ellipse-56"/>
    <g transform="translate(18.5013748 17.22742051)">
      <use fill-opacity="0" stroke="rgb(255,51,102)" stroke-width="4" mask="url(#mask-59)" xlink:href="#path-58"/>
      <path fill="none" stroke="rgb(255,51,102)" stroke-width="2" d="M0 15.54515897S.49725041 12 6.49725041 12s6.5 3.5 6.5 3.5"/>
    </g>
  </g>
  <g transform="translate(866 583)">
    <use fill-opacity="0" stroke="rgb(51,51,51)" stroke-width="4" mask="url(#mask-62)" xlink:href="#ellipse-61"/>
    <g transform="translate(18.5013748 17.22742051)">
      <use fill-opacity="0" stroke="rgb(255,51,102)" stroke-width="4" mask="url(#mask-64)" xlink:href="#path-63"/>
      <path fill="none" stroke="rgb(255,51,102)" stroke-width="2" d="M0 15.54515897S.49725041 12 6.49725041 12s6.5 3.5 6.5 3.5"/>
    </g>
  </g>
</svg>
