<svg xmlns="http://www.w3.org/2000/svg" xmlns:xlink="http://www.w3.org/1999/xlink" width="1280" height="800" viewBox="0 0 1280 800">
  <defs>
    <path id="path-3" fill-rule="evenodd" d="M5 0h437c2.75957512 0 5 2.24042488 5 5v789.5c0 2.75957512-2.24042488 5-5 5H5c-2.75957512 0-5-2.24042488-5-5V5c0-2.75957512 2.24042488-5 5-5z"/>
    <mask id="mask-4" x="-417" y="-.5" maskContentUnits="userSpaceOnUse" maskUnits="userSpaceOnUse">
      <rect width="1280" height="800" x="-417" y="-.5" fill="black"/>
      <use fill="white" xlink:href="#path-3"/>
    </mask>
    <rect id="rect-5" width="262" height="75" x="0" y="0"/>
    <path id="path-6" fill-rule="evenodd" d="M5 25h252c2.75957512 0 5 2.24042488 5 5v40c0 2.75957512-2.24042488 5-5 5H5c-2.75957512 0-5-2.24042488-5-5V30c0-2.75957512 2.24042488-5 5-5z"/>
    <mask id="mask-7" x="-500.5" y="-297" maskContentUnits="userSpaceOnUse" maskUnits="userSpaceOnUse">
      <rect width="1280" height="800" x="-500.5" y="-297" fill="black"/>
      <use fill="white" xlink:href="#path-6"/>
    </mask>
    <rect id="rect-8" width="16" height="14" x="0" y="0"/>
    <rect id="rect-9" width="16" height="14" x="0" y="0" rx="0" ry="0"/>
    <mask id="mask-10" x="-731.5" y="-340" maskContentUnits="userSpaceOnUse" maskUnits="userSpaceOnUse">
      <rect width="1280" height="800" x="-731.5" y="-340" fill="black"/>
      <use fill="white" xlink:href="#rect-9"/>
    </mask>
    <rect id="rect-12" width="262" height="75" x="0" y="0"/>
    <path id="path-13" fill-rule="evenodd" d="M5 25h252c2.75957512 0 5 2.24042488 5 5v40c0 2.75957512-2.24042488 5-5 5H5c-2.75957512 0-5-2.24042488-5-5V30c0-2.75957512 2.24042488-5 5-5z"/>
    <mask id="mask-14" x="-500.5" y="-390" maskContentUnits="userSpaceOnUse" maskUnits="userSpaceOnUse">
      <rect width="1280" height="800" x="-500.5" y="-390" fill="black"/>
      <use fill="white" xlink:href="#path-13"/>
    </mask>
    <ellipse id="ellipse-15" cx="8" cy="8" rx="8" ry="8"/>
    <mask id="mask-16" x="-731.5" y="-432" maskContentUnits="userSpaceOnUse" maskUnits="userSpaceOnUse">
      <rect width="1280" height="800" x="-731.5" y="-432" fill="black"/>
      <use fill="white" xlink:href="#ellipse-15"/>
    </mask>
    <rect id="rect-20" width="262" height="164" x="0" y="0"/>
    <path id="path-21" fill-rule="evenodd" d="M5 25h252c2.75957512 0 5 2.24042488 5 5v129c0 2.75957512-2.24042488 5-5 5H5c-2.75957512 0-5-2.24042488-5-5V30c0-2.75957512 2.24042488-5 5-5z"/>
    <mask id="mask-22" x="-500" y="-478.5" maskContentUnits="userSpaceOnUse" maskUnits="userSpaceOnUse">
      <rect width="1280" height="800" x="-500" y="-478.5" fill="black"/>
      <use fill="white" xlink:href="#path-21"/>
    </mask>
    <path id="path-23" fill-rule="evenodd" d="M0 2C0 .89616996.89616996 0 2 0h12c1.10383034 0 2 .89616996 2 2v8c0 1.10383034-.89616966 2-2 2H9.64279175L3 16v-4H2c-1.10383004 0-2-.89616966-2-2V2z"/>
    <mask id="mask-24" x="-732" y="-522.5" maskContentUnits="userSpaceOnUse" maskUnits="userSpaceOnUse">
      <rect width="1280" height="800" x="-732" y="-522.5" fill="black"/>
      <use fill="white" xlink:href="#path-23"/>
    </mask>
    <rect id="rect-25" width="150" height="50" x="0" y="0"/>
  </defs>
  <rect width="1280" height="800" x="0" y="0" fill="rgb(34,34,34)"/>
  <g transform="translate(417 .5)">
    <rect width="447" height="799.5" x="0" y="0" fill="rgb(34,34,34)"/>
    <use fill-opacity="0" stroke="rgb(70,70,70)" stroke-width="2" mask="url(#mask-4)" xlink:href="#path-3"/>
    <text font-size="0" style="white-space:pre">
      <tspan x="83.5" y="148" fill="rgb(255,255,255)" font-family="Arial" font-size="24" font-weight="400" style="white-space:pre;text-transform:none">Register</tspan>
    </text>
    <text font-size="0" style="white-space:pre" opacity=".5">
      <tspan x="83.5" y="185" fill="rgb(255,255,255)" font-family="Arial" font-size="18" font-weight="400" style="white-space:pre;text-transform:none">If you want to use video chat, you </tspan> <tspan x="83.5" y="215" fill="rgb(255,255,255)" font-family="Arial" font-size="18" font-weight="400" style="white-space:pre;text-transform:none">must first register your email, </tspan> <tspan x="83.5" y="245" fill="rgb(255,255,255)" font-family="Arial" font-size="18" font-weight="400" style="white-space:pre;text-transform:none">name, and a description of </tspan> <tspan x="83.5" y="275" fill="rgb(255,255,255)" font-family="Arial" font-size="18" font-weight="400" style="white-space:pre;text-transform:none">yourself.</tspan>
    </text>
    <g transform="translate(83.5 296.5)">
      <g>
        <use fill="rgb(34,34,34)" xlink:href="#path-6"/>
        <use fill-opacity="0" stroke="rgb(70,70,70)" stroke-width="2" mask="url(#mask-7)" xlink:href="#path-6"/>
      </g>
      <g transform="translate(231 43)">
        <use fill-opacity="0" stroke="rgb(255,51,102)" stroke-linecap="butt" stroke-linejoin="miter" stroke-width="4" mask="url(#mask-10)" xlink:href="#rect-9"/>
        <path fill="none" stroke="rgb(255,51,102)" stroke-width="2" d="M.9898558 3.99299577l7.02195738 4.03016425 6.97021941-3.9624936"/>
      </g>
      <text font-size="0" style="white-space:pre" opacity=".5">
        <tspan x="15" y="55" fill="rgb(255,255,255)" font-family="Arial" font-size="16" font-weight="400" style="white-space:pre;text-transform:none">Input email</tspan>
      </text>
      <text font-size="0" style="white-space:pre">
        <tspan x="0" y="15" fill="rgb(255,255,255)" font-family="Arial" font-size="16" font-weight="400" style="white-space:pre;text-transform:none">Email</tspan>
      </text>
    </g>
    <g transform="translate(83.5 389.5)">
      <g>
        <use fill="rgb(34,34,34)" xlink:href="#path-13"/>
        <use fill-opacity="0" stroke="rgb(70,70,70)" stroke-width="2" mask="url(#mask-14)" xlink:href="#path-13"/>
      </g>
      <g transform="translate(231 42)">
        <use fill-opacity="0" stroke="rgb(255,51,102)" stroke-width="4" mask="url(#mask-16)" xlink:href="#ellipse-15"/>
        <path fill="none" stroke="rgb(255,51,102)" stroke-linecap="round" stroke-linejoin="round" stroke-width="2" d="M11.00403433 10s-.97460254 1.51343356-2.99802589 1.5036937c-2.02342334-.00973987-3.00824413-1.50228722-3.00824413-1.50228722"/>
        <ellipse cx="5" cy="6" fill="rgb(255,51,102)" rx="1" ry="1"/>
        <ellipse cx="11" cy="6" fill="rgb(255,51,102)" rx="1" ry="1"/>
      </g>
      <text font-size="0" style="white-space:pre" opacity=".5">
        <tspan x="15" y="55" fill="rgb(255,255,255)" font-family="Arial" font-size="16" font-weight="400" style="white-space:pre;text-transform:none">Input name</tspan>
      </text>
      <text font-size="0" style="white-space:pre">
        <tspan x="0" y="15" fill="rgb(255,255,255)" font-family="Arial" font-size="16" font-weight="400" style="white-space:pre;text-transform:none">Name</tspan>
      </text>
    </g>
    <g transform="translate(83 478)">
      <g>
        <use fill="rgb(34,34,34)" xlink:href="#path-21"/>
        <use fill-opacity="0" stroke="rgb(70,70,70)" stroke-width="2" mask="url(#mask-22)" xlink:href="#path-21"/>
      </g>
      <text font-size="0" style="white-space:pre" opacity=".5">
        <tspan x="15" y="55" fill="rgb(255,255,255)" font-family="Arial" font-size="16" font-weight="400" style="white-space:pre;text-transform:none">Input description</tspan>
      </text>
      <text font-size="0" style="white-space:pre">
        <tspan x="0" y="15" fill="rgb(255,255,255)" font-family="Arial" font-size="16" font-weight="400" style="white-space:pre;text-transform:none">Description</tspan>
      </text>
      <use fill-opacity="0" stroke="rgb(255,51,102)" stroke-width="4" mask="url(#mask-24)" transform="translate(232 44)" xlink:href="#path-23"/>
    </g>
    <g transform="translate(83 657)">
      <path fill="rgb(255,51,102)" fill-rule="evenodd" d="M5 0h140c2.75957512 0 5 2.24042488 5 5v40c0 2.75957512-2.24042488 5-5 5H5c-2.75957512 0-5-2.24042488-5-5V5c0-2.75957512 2.24042488-5 5-5z"/>
      <text font-size="0" style="white-space:pre">
        <tspan x="31" y="29" fill="rgb(255,255,255)" font-family="Arial" font-size="12" font-weight="400" style="white-space:pre;text-transform:uppercase" letter-spacing="3.75">REGISTER</tspan>
      </text>
    </g>
  </g>
  <text font-size="0" style="white-space:pre">
    <tspan x="463" y="780" fill="rgb(255,255,255)" font-family="Arial" font-size="12" font-weight="700" style="white-space:pre;text-transform:none">NOVEMBERIZING / PROJECT X / WEB VIDEO CHAT / LICENSE</tspan>
  </text>
  <text font-size="0" style="white-space:pre">
    <tspan x="448" y="59" fill="rgb(255,255,255)" font-family="Arial" font-size="40" font-weight="700" style="white-space:pre;text-transform:none">X WEB VIDEO CHAT</tspan>
  </text>
</svg>
