<svg xmlns="http://www.w3.org/2000/svg" xmlns:xlink="http://www.w3.org/1999/xlink" width="1280" height="800" viewBox="0 0 1280 800">
  <defs>
    <path id="path-2" fill-rule="evenodd" d="M5 0h350c2.75957512 0 5 2.24042488 5 5v260c0 2.75957512-2.24042488 5-5 5H5c-2.75957512 0-5-2.24042488-5-5V5c0-2.75957512 2.24042488-5 5-5z"/>
    <mask id="mask-3" x="-460" y="-446" maskContentUnits="userSpaceOnUse" maskUnits="userSpaceOnUse">
      <rect width="1280" height="800" x="-460" y="-446" fill="black"/>
      <use fill="white" xlink:href="#path-2"/>
    </mask>
    <ellipse id="ellipse-4" cx="60" cy="45" rx="20" ry="20"/>
    <mask id="mask-5" x="-460" y="-446" maskContentUnits="userSpaceOnUse" maskUnits="userSpaceOnUse">
      <rect width="1280" height="800" x="-460" y="-446" fill="black"/>
      <use fill="white" xlink:href="#ellipse-4"/>
    </mask>
    <path id="path-6" fill-rule="evenodd" d="M6.49725041 0c2.2076601 0 4 1.7923399 4 4v2c0 2.2076601-1.7923399 4-4 4s-4-1.7923399-4-4V4c0-2.2076601 1.7923399-4 4-4z"/>
    <mask id="mask-7" x="-513.501" y="-483.227" maskContentUnits="userSpaceOnUse" maskUnits="userSpaceOnUse">
      <rect width="1280" height="800" x="-513.501" y="-483.227" fill="black"/>
      <use fill="white" xlink:href="#path-6"/>
    </mask>
    <path id="path-9" fill-rule="evenodd" d="M8.0017048 13c-4.03269826-2.95773108-5.99913965-6-6.00170334-8C1.99743777 3.00000124 3.5 2.0002003 5.00099516 2.00010008 6.5 2 7.5 3 8.0017048 4 8.5 3 9.5 2 11 2.00008445 12.49996571 2.00016889 14.0017048 3.00293329 14.0017048 5c0 2-2.01900582 5.00793807-6 8z"/>
    <mask id="mask-10" x="-500" y="-618" maskContentUnits="userSpaceOnUse" maskUnits="userSpaceOnUse">
      <rect width="1280" height="800" x="-500" y="-618" fill="white"/>
      <use fill="black" xlink:href="#path-9"/>
    </mask>
    <path id="path-12" fill-rule="evenodd" d="M0 2C0 .89616996.89616996 0 2 0h12c1.10383034 0 2 .89616996 2 2v8c0 1.10383034-.89616966 2-2 2H9.64279175L3 16v-4H2c-1.10383004 0-2-.89616966-2-2V2z"/>
    <mask id="mask-13" x="-500" y="-678" maskContentUnits="userSpaceOnUse" maskUnits="userSpaceOnUse">
      <rect width="1280" height="800" x="-500" y="-678" fill="black"/>
      <use fill="white" xlink:href="#path-12"/>
    </mask>
    <path id="path-15" fill-rule="evenodd" d="M5 0h350c2.75957512 0 5 2.24042488 5 5v260c0 2.75957512-2.24042488 5-5 5H5c-2.75957512 0-5-2.24042488-5-5V5c0-2.75957512 2.24042488-5 5-5z"/>
    <mask id="mask-16" x="-460" y="-130" maskContentUnits="userSpaceOnUse" maskUnits="userSpaceOnUse">
      <rect width="1280" height="800" x="-460" y="-130" fill="black"/>
      <use fill="white" xlink:href="#path-15"/>
    </mask>
    <ellipse id="ellipse-17" cx="60" cy="45" rx="20" ry="20"/>
    <mask id="mask-18" x="-460" y="-130" maskContentUnits="userSpaceOnUse" maskUnits="userSpaceOnUse">
      <rect width="1280" height="800" x="-460" y="-130" fill="black"/>
      <use fill="white" xlink:href="#ellipse-17"/>
    </mask>
    <path id="path-19" fill-rule="evenodd" d="M6.49725041 0c2.2076601 0 4 1.7923399 4 4v2c0 2.2076601-1.7923399 4-4 4s-4-1.7923399-4-4V4c0-2.2076601 1.7923399-4 4-4z"/>
    <mask id="mask-20" x="-513.501" y="-167.227" maskContentUnits="userSpaceOnUse" maskUnits="userSpaceOnUse">
      <rect width="1280" height="800" x="-513.501" y="-167.227" fill="black"/>
      <use fill="white" xlink:href="#path-19"/>
    </mask>
    <path id="path-22" fill-rule="evenodd" d="M8.0017048 13c-4.03269826-2.95773108-5.99913965-6-6.00170334-8C1.99743777 3.00000124 3.5 2.0002003 5.00099516 2.00010008 6.5 2 7.5 3 8.0017048 4 8.5 3 9.5 2 11 2.00008445 12.49996571 2.00016889 14.0017048 3.00293329 14.0017048 5c0 2-2.01900582 5.00793807-6 8z"/>
    <mask id="mask-23" x="-500" y="-302" maskContentUnits="userSpaceOnUse" maskUnits="userSpaceOnUse">
      <rect width="1280" height="800" x="-500" y="-302" fill="white"/>
      <use fill="black" xlink:href="#path-22"/>
    </mask>
    <path id="path-25" fill-rule="evenodd" d="M0 2C0 .89616996.89616996 0 2 0h12c1.10383034 0 2 .89616996 2 2v8c0 1.10383034-.89616966 2-2 2H9.64279175L3 16v-4H2c-1.10383004 0-2-.89616966-2-2V2z"/>
    <mask id="mask-26" x="-500" y="-362" maskContentUnits="userSpaceOnUse" maskUnits="userSpaceOnUse">
      <rect width="1280" height="800" x="-500" y="-362" fill="black"/>
      <use fill="white" xlink:href="#path-25"/>
    </mask>
  </defs>
  <rect width="1280" height="800" x="0" y="0" fill="rgb(34,34,34)"/>
  <text font-size="0" style="white-space:pre">
    <tspan x="462" y="102" fill="rgb(255,255,255)" font-family="Arial" font-size="12" font-weight="700" style="white-space:pre;text-transform:none">NOVEMBERIZING / PROJECT X / WEB VIDEO CHAT / LICENSE</tspan>
  </text>
  <text font-size="0" style="white-space:pre">
    <tspan x="448" y="59" fill="rgb(255,255,255)" font-family="Arial" font-size="40" font-weight="700" style="white-space:pre;text-transform:none">X WEB VIDEO CHAT</tspan>
  </text>
  <g>
    <g transform="translate(460 446)">
      <use fill-opacity="0" stroke="rgb(70,70,70)" stroke-width="2" mask="url(#mask-3)" xlink:href="#path-2"/>
      <g>
        <use fill-opacity="0" stroke="rgb(51,51,51)" stroke-width="4" mask="url(#mask-5)" xlink:href="#ellipse-4"/>
        <g transform="translate(53.5013748 37.22742051)">
          <use fill-opacity="0" stroke="rgb(255,51,102)" stroke-width="4" mask="url(#mask-7)" xlink:href="#path-6"/>
          <path fill="none" stroke="rgb(255,51,102)" stroke-width="2" d="M0 15.54515897S.49725041 12 6.49725041 12s6.5 3.5 6.5 3.5"/>
        </g>
      </g>
      <g>
        <text font-size="0" style="white-space:pre">
          <tspan x="95" y="41" fill="rgb(255,255,255)" font-family="Arial" font-size="18" font-weight="400" style="white-space:pre;text-transform:none">Tigger</tspan>
        </text>
        <text font-size="0" style="white-space:pre" opacity=".5">
          <tspan x="95" y="65" fill="rgb(255,255,255)" font-family="Arial" font-size="16" font-weight="400" style="white-space:pre;text-transform:none">@Tigger</tspan>
        </text>
      </g>
      <text font-size="0" style="white-space:pre">
        <tspan x="40" y="93" fill="rgb(255,255,255)" font-family="Arial" font-size="12" font-weight="400" style="white-space:pre;text-transform:none">Tigger is a fictional character, similar to a tiger, </tspan> <tspan x="40" y="113" fill="rgb(255,255,255)" font-family="Arial" font-size="12" font-weight="400" style="white-space:pre;text-transform:none">originally introduced in the 1928 story collection The </tspan> <tspan x="40" y="133" fill="rgb(255,255,255)" font-family="Arial" font-size="12" font-weight="400" style="white-space:pre;text-transform:none">House at Pooh Corner, the sequel to the 1926 book </tspan> <tspan x="40" y="153" fill="rgb(255,255,255)" font-family="Arial" font-size="12" font-weight="400" style="white-space:pre;text-transform:none">Winnie-the-Pooh by A. A. Milne.</tspan>
      </text>
      <g>
        <use fill-opacity="0" stroke="rgb(255,51,102)" stroke-linecap="butt" stroke-linejoin="miter" stroke-width="4" mask="url(#mask-10)" transform="translate(40 172)" xlink:href="#path-9"/>
        <text font-size="0" style="white-space:pre">
          <tspan x="66" y="184" fill="rgb(255,51,102)" font-family="Arial" font-size="12" font-weight="400" style="white-space:pre;text-transform:uppercase" letter-spacing="3.75">45</tspan>
        </text>
        <text font-size="0" style="white-space:pre" opacity=".5">
          <tspan x="106.5" y="185" fill="rgb(255,255,255)" font-family="Arial" font-size="16" font-weight="400" style="white-space:pre">09:30 Nov 14, 2018</tspan>
        </text>
        <rect width="358" height="1" x="1" y="210" fill="rgb(51,51,51)"/>
        <use fill-opacity="0" stroke="rgb(255,51,102)" stroke-width="4" mask="url(#mask-13)" opacity=".5" transform="translate(40 232)" xlink:href="#path-12"/>
        <text font-size="0" style="white-space:pre" opacity=".5">
          <tspan x="66" y="245" fill="rgb(255,255,255)" font-family="Arial" font-size="16" font-weight="400" style="white-space:pre">123 people are talking about this</tspan>
        </text>
        <path fill="none" stroke="rgb(255,51,102)" stroke-width="2" d="M335.00498129 235.00165125l4.9908214 5.00223131L335 244.99834875"/>
      </g>
    </g>
    <g transform="translate(460 130)">
      <use fill-opacity="0" stroke="rgb(70,70,70)" stroke-width="2" mask="url(#mask-16)" xlink:href="#path-15"/>
      <g>
        <use fill-opacity="0" stroke="rgb(51,51,51)" stroke-width="4" mask="url(#mask-18)" xlink:href="#ellipse-17"/>
        <g transform="translate(53.5013748 37.22742051)">
          <use fill-opacity="0" stroke="rgb(255,51,102)" stroke-width="4" mask="url(#mask-20)" xlink:href="#path-19"/>
          <path fill="none" stroke="rgb(255,51,102)" stroke-width="2" d="M0 15.54515897S.49725041 12 6.49725041 12s6.5 3.5 6.5 3.5"/>
        </g>
      </g>
      <g>
        <text font-size="0" style="white-space:pre">
          <tspan x="95" y="41" fill="rgb(255,255,255)" font-family="Arial" font-size="18" font-weight="400" style="white-space:pre;text-transform:none">Pooh</tspan>
        </text>
        <text font-size="0" style="white-space:pre" opacity=".5">
          <tspan x="95" y="65" fill="rgb(255,255,255)" font-family="Arial" font-size="16" font-weight="400" style="white-space:pre;text-transform:none">@Pooh</tspan>
        </text>
      </g>
      <text font-size="0" style="white-space:pre">
        <tspan x="40" y="93" fill="rgb(255,255,255)" font-family="Arial" font-size="12" font-weight="400" style="white-space:pre;text-transform:none">Winnie-the-Pooh, also called Pooh Bear and Pooh, </tspan> <tspan x="40" y="113" fill="rgb(255,255,255)" font-family="Arial" font-size="12" font-weight="400" style="white-space:pre;text-transform:none">is a fictional anthropomorphic teddy bear created by </tspan> <tspan x="40" y="133" fill="rgb(255,255,255)" font-family="Arial" font-size="12" font-weight="400" style="white-space:pre;text-transform:none">English author A. A. Milne and English illustrator E. </tspan> <tspan x="40" y="153" fill="rgb(255,255,255)" font-family="Arial" font-size="12" font-weight="400" style="white-space:pre;text-transform:none">H. Shepard.</tspan>
      </text>
      <g>
        <use fill-opacity="0" stroke="rgb(255,51,102)" stroke-linecap="butt" stroke-linejoin="miter" stroke-width="4" mask="url(#mask-23)" transform="translate(40 172)" xlink:href="#path-22"/>
        <text font-size="0" style="white-space:pre">
          <tspan x="66" y="184" fill="rgb(255,51,102)" font-family="Arial" font-size="12" font-weight="400" style="white-space:pre;text-transform:uppercase" letter-spacing="3.75">45</tspan>
        </text>
        <text font-size="0" style="white-space:pre" opacity=".5">
          <tspan x="108" y="185" fill="rgb(255,255,255)" font-family="Arial" font-size="16" font-weight="400" style="white-space:pre">09:30 Nov 14, 2018</tspan>
        </text>
        <rect width="358" height="1" x="1" y="210" fill="rgb(51,51,51)"/>
        <use fill-opacity="0" stroke="rgb(255,51,102)" stroke-width="4" mask="url(#mask-26)" opacity=".5" transform="translate(40 232)" xlink:href="#path-25"/>
        <text font-size="0" style="white-space:pre" opacity=".5">
          <tspan x="66" y="245" fill="rgb(255,255,255)" font-family="Arial" font-size="16" font-weight="400" style="white-space:pre">123 people are talking about this</tspan>
        </text>
        <path fill="none" stroke="rgb(255,51,102)" stroke-width="2" d="M335.00498129 235.00165125l4.9908214 5.00223131L335 244.99834875"/>
      </g>
    </g>
  </g>
</svg>
